<svg width="110" height="110" viewBox="0 0 110 110" fill="none" xmlns="http://www.w3.org/2000/svg">
<rect width="110" height="110" rx="20" fill="white"/>
<path d="M39.94 97.48C28.26 97.48 20.04 94.18 15.28 87.58C10.52 80.94 8.14 70.5 8.14 56.26C8.14 41.94 10.56 31.54 15.4 25.06C20.28 18.58 28.82 15.34 41.02 15.34C52.62 15.34 60.74 18.32 65.38 24.28C70.02 30.24 72.44 37.56 72.64 46.24H60.34C60.14 38.6 58.52 32.96 55.48 29.32C52.48 25.68 47.68 23.86 41.08 23.86C34.2 23.86 29.04 25.96 25.6 30.16C22.2 34.32 20.5 43.14 20.5 56.62C20.5 69.18 22.2 77.72 25.6 82.24C29.04 86.76 34.18 89.02 41.02 89.02C47.46 89.02 52.2 87.58 55.24 84.7C58.28 81.78 59.86 77.14 59.98 70.78L60.46 65.26H42.4V57.76H72.64V97H65.5L64.18 84.64C61.26 93.2 53.18 97.48 39.94 97.48Z" fill="black"/>
<path d="M52.2891 85.7109C52.2891 91.5703 52.3932 95.3333 52.6016 97H42.4062V56.1797H52.2891V59.6953C55.8568 56.8307 59.5156 55.3984 63.2656 55.3984C67.6927 55.3984 70.9089 57.3125 72.9141 61.1406C74.9193 59.0833 76.5859 57.7292 77.9141 57.0781C80.1276 55.9583 82.3411 55.3984 84.5547 55.3984C86.7943 55.3984 88.6953 55.776 90.2578 56.5312C91.8203 57.2865 93.1094 58.3542 94.125 59.7344C96.1823 62.5208 97.2109 66.349 97.2109 71.2188V86.7656C97.2109 91.1667 97.276 93.8099 97.4062 94.6953C97.5365 95.5807 97.7057 96.1536 97.9141 96.4141C98.1484 96.6745 98.3438 96.9089 98.5 97.1172L98.4219 97.2734C96.3385 97.0911 94.8021 97 93.8125 97H90.8828C89.9193 97 88.7344 97.0391 87.3281 97.1172V75.9844C87.3281 69.8906 86.3906 66.2708 84.5156 65.125C83.8906 64.7604 83.1484 64.5781 82.2891 64.5781C81.4557 64.5781 80.7135 64.6823 80.0625 64.8906C79.4115 65.0729 78.7995 65.3854 78.2266 65.8281C77.263 66.5312 76.1693 67.9115 74.9453 69.9688C74.9714 70.1771 74.9844 70.3854 74.9844 70.5938C74.9844 70.8021 74.9844 74.2396 74.9844 80.9062C74.9844 87.5729 75.1406 92.9375 75.4531 97C73.2396 97 71.3516 97 69.7891 97C68.2526 97 66.7812 97.0391 65.375 97.1172V75.9453C65.375 71.7005 65.1146 68.9401 64.5938 67.6641C64.099 66.388 63.5651 65.5547 62.9922 65.1641C62.4193 64.7734 61.7161 64.5781 60.8828 64.5781C57.4453 64.5781 54.5807 66.2318 52.2891 69.5391V85.7109Z" fill="#6B7280"/>
</svg>
